<?xml version="1.0" ?><svg viewBox="0 0 512 512" xmlns="http://www.w3.org/2000/svg"><title/><g id="Element"><path d="M449,30.48V251.94H430.25V36.57c0-9-6.71-16.25-15-16.25H153.73L172.31,0H420.87C436.4,0,449,13.65,449,30.48Z"/><polygon points="81.48 99.35 81.48 251.94 62.73 251.94 62.73 119.87 81.48 99.35"/><path d="M172.31,0V88c0,17.59-13.05,31.85-29.12,31.85H62.73L81.48,99.35l72.25-79Z"/><path d="M490.31,272.25H21.69c-12,0-21.69,9.1-21.69,20.32v77.21C0,381,9.71,390.1,21.69,390.1H490.31c12,0,21.69-9.1,21.69-20.32V292.57C512,281.35,502.29,272.25,490.31,272.25ZM169.19,339.91a66.92,66.92,0,0,1-.4,8,24.93,24.93,0,0,1-1.8,6.67,18,18,0,0,1-7.76,8.86,25.52,25.52,0,0,1-13.16,3.17,27.35,27.35,0,0,1-11.68-2.2,17.16,17.16,0,0,1-7.54-7.15,25.73,25.73,0,0,1-2.44-6.06,24.67,24.67,0,0,1-1-6.53,6.18,6.18,0,0,1,6.54-6.77,5.26,5.26,0,0,1,4.18,1.6,11.13,11.13,0,0,1,2.16,5,47.51,47.51,0,0,0,1.6,5.78,8.63,8.63,0,0,0,2.68,3.71,8.17,8.17,0,0,0,5.36,1.55q9.26,0,9.26-13.58V303.81c0-2.81.61-4.93,1.85-6.34a6.37,6.37,0,0,1,5-2.11,6.57,6.57,0,0,1,5.15,2.11c1.27,1.41,1.9,3.53,1.9,6.34ZM233.46,356a21.33,21.33,0,0,1-9.42,7.8,35.29,35.29,0,0,1-14.71,2.82q-10.2,0-16.83-3.85a22.5,22.5,0,0,1-7.63-7.4,16.81,16.81,0,0,1-2.94-9,6.1,6.1,0,0,1,6.25-6.16,5.32,5.32,0,0,1,3.74,1.41,11.24,11.24,0,0,1,2.61,4.18,27.23,27.23,0,0,0,2.84,5.5,11.52,11.52,0,0,0,4.3,3.65,16,16,0,0,0,7.29,1.43q6.19,0,10.08-2.89a8.7,8.7,0,0,0,3.87-7.22,7.62,7.62,0,0,0-2.09-5.57,13.46,13.46,0,0,0-5.4-3.26c-2.21-.75-5.17-1.55-8.86-2.4A65,65,0,0,1,194.13,331a20.1,20.1,0,0,1-7.95-6.35,16.53,16.53,0,0,1-2.93-10,17.11,17.11,0,0,1,3.1-10.1,19.58,19.58,0,0,1,9-6.79,36.76,36.76,0,0,1,13.81-2.37,34.23,34.23,0,0,1,11,1.57,23.25,23.25,0,0,1,7.68,4.18,17.49,17.49,0,0,1,4.47,5.48,12.6,12.6,0,0,1,1.41,5.59,6.6,6.6,0,0,1-1.77,4.49,5.62,5.62,0,0,1-4.39,2,5,5,0,0,1-3.64-1.2,16.41,16.41,0,0,1-2.71-3.93,17.59,17.59,0,0,0-4.51-6.08q-2.62-2.19-8.46-2.19a14.61,14.61,0,0,0-8.72,2.38c-2.2,1.58-3.31,3.48-3.31,5.71a5.83,5.83,0,0,0,1.13,3.57,9.44,9.44,0,0,0,3.1,2.58,20.56,20.56,0,0,0,4,1.69c1.34.41,3.57,1,6.67,1.79a104.62,104.62,0,0,1,10.55,3,32.08,32.08,0,0,1,8,4,16.46,16.46,0,0,1,5.17,5.95,19.1,19.1,0,0,1,1.85,8.81A20.2,20.2,0,0,1,233.46,356Zm77.2-10.57a31.27,31.27,0,0,1-6.49,11.32,28.25,28.25,0,0,1-10.62,7.34,38.42,38.42,0,0,1-14.43,2.53,38,38,0,0,1-14.47-2.6A28.68,28.68,0,0,1,254,356.64a31.28,31.28,0,0,1-6.46-11.42,46,46,0,0,1-2.19-14.43,44.57,44.57,0,0,1,2.28-14.57,31.26,31.26,0,0,1,6.6-11.28,28.76,28.76,0,0,1,10.53-7.12,38,38,0,0,1,14.1-2.46q10.73,0,18.4,4.34a28.2,28.2,0,0,1,11.63,12.36,42.2,42.2,0,0,1,3.95,18.83A46.11,46.11,0,0,1,310.66,345.41Zm71.95,12.12q0,9.08-7.52,9.07a10,10,0,0,1-3.38-.54,8.68,8.68,0,0,1-2.82-1.71,16.34,16.34,0,0,1-2.44-2.75c-.76-1.05-1.51-2.12-2.26-3.22L338,318.24v40.37q0,4-1.83,6a6.51,6.51,0,0,1-9.45,0,8.78,8.78,0,0,1-1.78-5.95V305.46a15,15,0,0,1,.75-5.31,7.59,7.59,0,0,1,3-3.46,8.08,8.08,0,0,1,4.46-1.33,7.65,7.65,0,0,1,3.22.61,7.48,7.48,0,0,1,2.35,1.64,16.23,16.23,0,0,1,2.07,2.68c.71,1.1,1.44,2.24,2.19,3.43l26.83,40.61v-41q0-4,1.72-6a5.77,5.77,0,0,1,4.63-2,6,6,0,0,1,4.75,2q1.72,2,1.73,6Z"/><path d="M289.25,309.29a19.13,19.13,0,0,0-10.41-2.84,18.84,18.84,0,0,0-7.73,1.57A17,17,0,0,0,265,312.6a22,22,0,0,0-4,7.69,34.64,34.64,0,0,0-1.48,10.5A35.45,35.45,0,0,0,261,341.41a21.89,21.89,0,0,0,4.18,7.88,17.56,17.56,0,0,0,6.2,4.67,19.62,19.62,0,0,0,17.54-1.13,18.48,18.48,0,0,0,7.14-8.27,32,32,0,0,0,2.65-13.77,32.32,32.32,0,0,0-2.44-13.11A18.28,18.28,0,0,0,289.25,309.29Z"/><path d="M439.76,400.25c-5.18,0-9.38,4.55-9.38,10.16v65c0,9-6.71,16.25-15,16.25H96.62c-8.29,0-15-7.27-15-16.25v-65c0-5.61-4.2-10.16-9.38-10.16s-9.37,4.55-9.37,10.16v71.11C62.87,498.35,75.47,512,91,512H421c15.52,0,28.12-13.65,28.12-30.48V410.41C449.13,404.8,444.94,400.25,439.76,400.25Z"/></g></svg>