<svg id="Group_1" data-name="Group 1" xmlns="http://www.w3.org/2000/svg" width="87" height="68" viewBox="0 0 87 68">
  <g id="Polygon_1" data-name="Polygon 1" fill="none">
    <path d="M59.229,0a11,11,0,0,1,9.266,5.072l14.713,23a11,11,0,0,1,0,11.855l-14.713,23A11,11,0,0,1,59.229,68H27.771a11,11,0,0,1-9.266-5.072l-14.713-23a11,11,0,0,1,0-11.855l14.713-23A11,11,0,0,1,27.771,0Z" stroke="none"/>
    <path d="M 27.77142333984375 7 C 26.40034866333008 7 25.14071273803711 7.689525604248047 24.40187835693359 8.844490051269531 L 9.688636779785156 31.84450912475586 C 8.851005554199219 33.15392684936523 8.851005554199219 34.84609222412109 9.688636779785156 36.15550994873047 L 24.40187835693359 59.15550994873047 C 25.14071273803711 60.31047439575195 26.40034866333008 61 27.77142333984375 61 L 59.22858428955078 61 C 60.59963989257813 61 61.85927581787109 60.31047439575195 62.59811401367188 59.15550994873047 L 77.31137084960938 36.15549087524414 C 78.14900207519531 34.84609222412109 78.14900207519531 33.15390777587891 77.31134796142578 31.84449005126953 L 62.59811401367188 8.844490051269531 C 61.85927581787109 7.689525604248047 60.59963989257813 7 59.22858428955078 7 L 27.77142333984375 7 M 27.77142333984375 0 L 59.22858428955078 0 C 62.98020172119141 0 66.47312927246094 1.912033081054688 68.49480438232422 5.072345733642578 L 83.20803833007813 28.07234573364258 C 85.51975250244141 31.68603515625 85.51975250244141 36.31396484375 83.20803833007813 39.92765426635742 L 68.49480438232422 62.92765426635742 C 66.47312927246094 66.08796691894531 62.98020172119141 68 59.22858428955078 68 L 27.77142333984375 68 C 24.0197868347168 68 20.52685546875 66.08796691894531 18.50518798828125 62.92765426635742 L 3.791946411132813 39.92765426635742 C 1.480255126953125 36.31396484375 1.480255126953125 31.68603515625 3.791969299316406 28.07234573364258 L 18.50518798828125 5.072345733642578 C 20.52685546875 1.912033081054688 24.01980209350586 0 27.77142333984375 0 Z" stroke="none" fill="#5d51f2"/>
  </g>
  <g id="Path_1" data-name="Path 1" fill="none">
    <path d="M83.208,28.072a11,11,0,0,1,0,11.855l-14.713,23A11,11,0,0,1,59.229,68H27.771a11,11,0,0,1-9.266-5.072l-14.713-23a11,11,0,0,1,0-11.855c3.857-5.721,19.275,2.4,39.129,2.4S78.7,21.384,83.208,28.072Z" stroke="none"/>
    <path d="M 77.23612976074219 32.61529922485352 C 74.89696502685547 32.61529922485352 71.26620483398438 33.38957214355469 67.06211090087891 34.28608322143555 C 60.40860366821289 35.7049560546875 52.12807464599609 37.47079086303711 42.92091369628906 37.47079086303711 C 33.53471374511719 37.47079086303711 25.26340484619141 35.82817459106445 18.61729431152344 34.50830078125 C 15.04632568359375 33.79913330078125 11.91086578369141 33.17648315429688 9.163581848144531 33.09410095214844 C 8.925056457519531 34.12652969360352 9.100082397460938 35.2354736328125 9.688636779785156 36.155517578125 L 24.40187835693359 59.155517578125 C 25.14071273803711 60.31046295166016 26.40034866333008 60.99999237060547 27.77142333984375 60.99999237060547 L 59.22858428955078 60.99999237060547 C 60.59963989257813 60.99999237060547 61.85927581787109 60.31046295166016 62.59811401367188 59.15550231933594 L 77.31134796142578 36.155517578125 C 78.00518798828125 35.07091522216797 78.12432098388672 33.72370910644531 77.72133636474609 32.6290168762207 C 77.58784484863281 32.62078475952148 77.42721557617188 32.61529922485352 77.23612976074219 32.61529922485352 M 77.23612976074219 25.61529922485352 C 79.95603179931641 25.61529922485352 81.99481964111328 26.27281188964844 83.20803833007813 28.07233810424805 C 85.51975250244141 31.6860466003418 85.51975250244141 36.3139533996582 83.20803833007813 39.92766571044922 L 68.49480438232422 62.92764663696289 C 66.47312927246094 66.08795166015625 62.98020172119141 67.99999237060547 59.22858428955078 67.99999237060547 L 27.77142333984375 67.99999237060547 C 24.0197868347168 67.99999237060547 20.52685546875 66.08797454833984 18.50518798828125 62.92764663696289 L 3.791946411132813 39.92766571044922 C 1.480255126953125 36.3139533996582 1.480255126953125 31.68602752685547 3.791969299316406 28.07233810424805 C 4.796638488769531 26.58214569091797 6.586357116699219 26.03109741210938 9.034172058105469 26.03102111816406 C 15.98302459716797 26.03081130981445 28.23882675170898 30.47079086303711 42.92091369628906 30.47079086303711 C 57.433349609375 30.47079086303711 69.84647369384766 25.61529922485352 77.23612976074219 25.61529922485352 Z" stroke="none" fill="#ffa549"/>
  </g>
</svg>
