<svg xmlns="http://www.w3.org/2000/svg" width="144.098" height="127.267" viewBox="0 0 144.098 127.267">
  <g id="Path_4" data-name="Path 4" transform="translate(0 11.151)" fill="none">
    <path d="M58-11.151c19,0,8.629,19.407,27.433,36.881C98.033,37.438,144.1,44.963,144.1,58c0,16.337-39.792,1.5-51.021,12.254-10.413,9.974,8.052,45.862-7.644,45.862-15.888,0-16.755-20.025-27.433-30.575C47.558,75.227,0,74.144,0,58c0-12.909,23.306-7.42,30.59-19.467C41,21.3,38.877-11.151,58-11.151Z" stroke="none"/>
    <path d="M 58 -4.15093994140625 C 52.06723022460938 -4.15093994140625 49.38529968261719 2.43536376953125 45.26002502441406 18.19078826904297 C 43.07920074462891 26.51991271972656 40.82412719726563 35.13258361816406 36.58005523681641 42.15410995483398 C 31.67400360107422 50.26961135864258 22.71077728271484 52.56728744506836 15.50869750976563 54.41350936889648 C 12.79948425292969 55.10800933837891 7.75653076171875 56.40073394775391 7 58.0000114440918 C 7 62.13278579711914 26.06785583496094 67.0191650390625 34.21017456054688 69.105712890625 C 46.60887908935547 72.28303527832031 57.31678009033203 75.02706146240234 62.919677734375 80.56146240234375 C 67.65818023681641 85.24288940429688 70.64425659179688 91.1663818359375 73.27880096435547 96.39258575439453 C 77.61803436279297 105.0003128051758 79.97820281982422 108.7504577636719 84.93522644042969 109.0761032104492 C 85.45445251464844 106.3534164428711 84.55897521972656 99.76049041748047 84.00025177001953 95.64708709716797 C 82.5133056640625 84.70008850097656 80.82795715332031 72.29251098632813 88.23490142822266 65.19816589355469 C 94.00462341308594 59.67285919189453 103.1312561035156 58.92790985107422 111.2980499267578 58.92790985107422 C 114.0707550048828 58.92790985107422 116.9277267456055 59.02341079711914 119.7504806518555 59.11911010742188 C 122.3480529785156 59.20721054077148 124.9148788452148 59.29568481445313 127.3471527099609 59.29568481445313 C 134.5071563720703 59.29568481445313 136.6141052246094 58.39728927612305 137.0717620849609 58.39728927612305 C 137.1246490478516 58.39728927612305 137.1555938720703 58.40930938720703 137.169677734375 58.43608474731445 C 135.5243835449219 54.767333984375 119.5475006103516 48.83673477172852 110.9641571044922 45.65061187744141 C 98.65297698974609 41.08073425292969 87.02455139160156 36.7642822265625 80.66767883300781 30.85741424560547 C 70.63719940185547 21.53651428222656 67.72988128662109 11.69296264648438 65.60702514648438 4.505538940429688 C 63.16977691650391 -3.746437072753906 62.81430053710938 -4.15093994140625 58 -4.15093994140625 M 58 -11.15093994140625 C 76.99527740478516 -11.15093994140625 66.62935638427734 8.25640869140625 85.43272399902344 25.7296142578125 C 98.03285217285156 37.43775939941406 144.09765625 44.96276092529297 144.09765625 58.0000114440918 C 144.09765625 65.05253601074219 136.6794738769531 66.29569244384766 127.3471450805664 66.29569244384766 C 122.2699813842773 66.29569244384766 116.6241226196289 65.92791748046875 111.2980651855469 65.92791748046875 C 103.7366638183594 65.92791748046875 96.82061767578125 66.66822814941406 93.07640075683594 70.25383758544922 C 82.66310119628906 80.22763824462891 101.1286773681641 116.1156616210938 85.43272399902344 116.1156616210938 C 69.54462432861328 116.1156616210938 68.67803192138672 96.09053802490234 58 85.54108428955078 C 47.558349609375 75.22711181640625 0 74.14438629150391 0 58.0000114440918 C 0 45.09088516235352 23.30642700195313 50.58043670654297 30.589599609375 38.53270721435547 C 41.00387573242188 21.30306243896484 38.87657928466797 -11.15093994140625 58 -11.15093994140625 Z" stroke="none" fill="#707070"/>
  </g>
</svg>
